<svg width="392" height="167" viewBox="0 0 392 167" fill="none" xmlns="http://www.w3.org/2000/svg">
<g clip-path="url(#clip0_13_451)">
<rect width="392" height="167" fill="#F7EDC8"/>
<path d="M301.033 222.946L244.078 166.766L236.588 174.361L293.543 230.54L301.033 222.946Z" fill="#FFF9DD" fill-opacity="0.65"/>
<path d="M244.08 166.764L187.901 223.719L195.495 231.21L251.674 174.255L244.08 166.764Z" fill="#FFF9DD" fill-opacity="0.65"/>
<path d="M398.932 222.178L341.977 165.999L334.486 173.593L391.441 229.772L398.932 222.178Z" fill="#FFF9DD" fill-opacity="0.65"/>
<path d="M341.981 166L285.802 222.955L293.396 230.445L349.575 173.49L341.981 166Z" fill="#FFF9DD" fill-opacity="0.65"/>
<path d="M104.465 194.945L47.51 138.766L40.0195 146.36L96.9745 202.539L104.465 194.945Z" fill="#FFFBEA" fill-opacity="0.85"/>
<path d="M47.5127 138.763L-8.66637 195.718L-1.07236 203.208L55.1067 146.253L47.5127 138.763Z" fill="#FFFBEA" fill-opacity="0.85"/>
<path d="M202.366 194.179L145.411 138L137.921 145.594L194.876 201.773L202.366 194.179Z" fill="#FFFBEA" fill-opacity="0.85"/>
<path d="M145.414 137.998L89.2352 194.953L96.8293 202.444L153.008 145.489L145.414 137.998Z" fill="#FFFBEA" fill-opacity="0.85"/>
<path d="M301.034 193.612L244.079 137.433L236.588 145.027L293.543 201.206L301.034 193.612Z" fill="#FFFBEA" fill-opacity="0.85"/>
<path d="M244.081 137.431L187.902 194.386L195.496 201.876L251.675 144.921L244.081 137.431Z" fill="#FFFBEA" fill-opacity="0.85"/>
<path d="M398.932 192.845L341.977 136.666L334.487 144.26L391.442 200.439L398.932 192.845Z" fill="#FFFBEA" fill-opacity="0.85"/>
<path d="M341.98 136.667L285.801 193.622L293.395 201.112L349.574 144.157L341.98 136.667Z" fill="#FFFBEA" fill-opacity="0.85"/>
<path d="M104.465 194.945L47.51 138.766L40.0195 146.36L96.9745 202.539L104.465 194.945Z" fill="#FFFBEA" fill-opacity="0.85"/>
<path d="M47.5127 138.763L-8.66637 195.718L-1.07236 203.208L55.1067 146.253L47.5127 138.763Z" fill="#FFFBEA" fill-opacity="0.85"/>
<path d="M202.366 194.179L145.411 138L137.921 145.594L194.876 201.773L202.366 194.179Z" fill="#FFFBEA" fill-opacity="0.85"/>
<path d="M145.414 137.998L89.2352 194.953L96.8293 202.444L153.008 145.489L145.414 137.998Z" fill="#FFFBEA" fill-opacity="0.85"/>
<path d="M301.034 193.612L244.079 137.433L236.588 145.027L293.543 201.206L301.034 193.612Z" fill="#FFFBEA" fill-opacity="0.85"/>
<path d="M244.081 137.431L187.902 194.386L195.496 201.876L251.675 144.921L244.081 137.431Z" fill="#FFFBEA" fill-opacity="0.85"/>
<path d="M398.932 192.845L341.977 136.666L334.487 144.26L391.442 200.439L398.932 192.845Z" fill="#FFFBEA" fill-opacity="0.85"/>
<path d="M341.98 136.667L285.801 193.622L293.395 201.112L349.574 144.157L341.98 136.667Z" fill="#FFFBEA" fill-opacity="0.85"/>
<path d="M103.131 108.278L46.1758 52.0989L38.6852 59.6929L95.6403 115.872L103.131 108.278Z" fill="#FFF9DD" fill-opacity="0.65"/>
<path d="M46.179 52.0994L-10.0001 109.054L-2.4061 116.545L53.773 59.5899L46.179 52.0994Z" fill="#FFF9DD" fill-opacity="0.65"/>
<path d="M201.032 107.512L144.077 51.3327L136.586 58.9267L193.541 115.106L201.032 107.512Z" fill="#FFF9DD" fill-opacity="0.65"/>
<path d="M144.079 51.3323L87.9003 108.287L95.4943 115.778L151.673 58.8228L144.079 51.3323Z" fill="#FFF9DD" fill-opacity="0.65"/>
<path d="M299.699 106.945L242.744 50.766L235.254 58.36L292.209 114.539L299.699 106.945Z" fill="#FFF9DD" fill-opacity="0.65"/>
<path d="M242.746 50.7649L186.567 107.72L194.161 115.211L250.34 58.2554L242.746 50.7649Z" fill="#FFF9DD" fill-opacity="0.65"/>
<path d="M397.599 106.181L340.644 50.0021L333.154 57.5961L390.109 113.775L397.599 106.181Z" fill="#FFF9DD" fill-opacity="0.65"/>
<path d="M340.648 50.0002L284.469 106.955L292.063 114.446L348.242 57.4908L340.648 50.0002Z" fill="#FFF9DD" fill-opacity="0.65"/>
<path d="M103.131 78.9448L46.1763 22.7658L38.6857 30.3598L95.6408 86.5388L103.131 78.9448Z" fill="#FFFBEA" fill-opacity="0.85"/>
<path d="M46.1821 22.7646L-9.99694 79.7197L-2.40293 87.2103L53.7761 30.2552L46.1821 22.7646Z" fill="#FFFBEA" fill-opacity="0.85"/>
<path d="M201.032 78.1785L144.077 21.9994L136.587 29.5934L193.542 85.7725L201.032 78.1785Z" fill="#FFFBEA" fill-opacity="0.85"/>
<path d="M144.08 21.9985L87.9013 78.9536L95.4953 86.4442L151.674 29.4891L144.08 21.9985Z" fill="#FFFBEA" fill-opacity="0.85"/>
<path d="M299.7 77.6121L242.745 21.433L235.254 29.027L292.209 85.2061L299.7 77.6121Z" fill="#FFFBEA" fill-opacity="0.85"/>
<path d="M242.747 21.4312L186.568 78.3862L194.162 85.8768L250.341 28.9217L242.747 21.4312Z" fill="#FFFBEA" fill-opacity="0.85"/>
<path d="M397.598 76.8469L340.643 20.6679L333.152 28.2619L390.107 84.4409L397.598 76.8469Z" fill="#FFFBEA" fill-opacity="0.85"/>
<path d="M340.648 20.6663L284.469 77.6213L292.063 85.1119L348.242 28.1568L340.648 20.6663Z" fill="#FFFBEA" fill-opacity="0.85"/>
<path d="M103.131 78.9448L46.1763 22.7658L38.6857 30.3598L95.6408 86.5388L103.131 78.9448Z" fill="#FFFBEA" fill-opacity="0.85"/>
<path d="M46.1821 22.7646L-9.99694 79.7197L-2.40293 87.2103L53.7761 30.2552L46.1821 22.7646Z" fill="#FFFBEA" fill-opacity="0.85"/>
<path d="M201.032 78.1785L144.077 21.9994L136.587 29.5934L193.542 85.7725L201.032 78.1785Z" fill="#FFFBEA" fill-opacity="0.85"/>
<path d="M144.08 21.9985L87.9013 78.9536L95.4953 86.4442L151.674 29.4891L144.08 21.9985Z" fill="#FFFBEA" fill-opacity="0.85"/>
<path d="M299.7 77.6121L242.745 21.433L235.254 29.027L292.209 85.2061L299.7 77.6121Z" fill="#FFFBEA" fill-opacity="0.85"/>
<path d="M242.747 21.4312L186.568 78.3862L194.162 85.8768L250.341 28.9217L242.747 21.4312Z" fill="#FFFBEA" fill-opacity="0.85"/>
<path d="M397.598 76.8469L340.643 20.6679L333.152 28.2619L390.107 84.4409L397.598 76.8469Z" fill="#FFFBEA" fill-opacity="0.85"/>
<path d="M340.648 20.6663L284.469 77.6213L292.063 85.1119L348.242 28.1568L340.648 20.6663Z" fill="#FFFBEA" fill-opacity="0.85"/>
<path d="M103.13 166.944L46.1748 110.765L38.6843 118.359L95.6393 174.538L103.13 166.944Z" fill="#FFF9DD" fill-opacity="0.65"/>
<path d="M46.1794 110.766L-9.99962 167.721L-2.40561 175.211L53.7735 118.256L46.1794 110.766Z" fill="#FFF9DD" fill-opacity="0.65"/>
<path d="M201.033 166.179L144.078 110L136.588 117.594L193.543 173.773L201.033 166.179Z" fill="#FFF9DD" fill-opacity="0.65"/>
<path d="M144.08 109.999L87.9008 166.954L95.4948 174.444L151.674 117.489L144.08 109.999Z" fill="#FFF9DD" fill-opacity="0.65"/>
<path d="M299.698 165.611L242.743 109.432L235.253 117.026L292.208 173.205L299.698 165.611Z" fill="#FFF9DD" fill-opacity="0.65"/>
<path d="M242.749 109.43L186.57 166.385L194.164 173.876L250.343 116.921L242.749 109.43Z" fill="#FFF9DD" fill-opacity="0.65"/>
<path d="M397.598 164.847L340.643 108.668L333.153 116.262L390.108 172.441L397.598 164.847Z" fill="#FFF9DD" fill-opacity="0.65"/>
<path d="M340.648 108.667L284.469 165.622L292.063 173.112L348.242 116.157L340.648 108.667Z" fill="#FFF9DD" fill-opacity="0.65"/>
<path d="M103.133 137.612L46.1777 81.433L38.6872 89.027L95.6423 145.206L103.133 137.612Z" fill="#FFFBEA" fill-opacity="0.85"/>
<path d="M46.1802 81.432L-9.99889 138.387L-2.40488 145.878L53.7742 88.9225L46.1802 81.432Z" fill="#FFFBEA" fill-opacity="0.85"/>
<path d="M201.031 136.845L144.076 80.6659L136.586 88.2599L193.541 144.439L201.031 136.845Z" fill="#FFFBEA" fill-opacity="0.85"/>
<path d="M144.079 80.666L87.8995 137.621L95.4936 145.112L151.673 88.1566L144.079 80.666Z" fill="#FFFBEA" fill-opacity="0.85"/>
<path d="M299.699 136.278L242.744 80.0993L235.253 87.6933L292.208 143.872L299.699 136.278Z" fill="#FFFBEA" fill-opacity="0.85"/>
<path d="M242.748 80.0977L186.568 137.053L194.163 144.543L250.342 87.5882L242.748 80.0977Z" fill="#FFFBEA" fill-opacity="0.85"/>
<path d="M397.599 135.514L340.644 79.3353L333.153 86.9293L390.108 143.108L397.599 135.514Z" fill="#FFFBEA" fill-opacity="0.85"/>
<path d="M340.649 79.3328L284.47 136.288L292.064 143.778L348.243 86.8233L340.649 79.3328Z" fill="#FFFBEA" fill-opacity="0.85"/>
<path d="M103.133 137.612L46.1777 81.433L38.6872 89.027L95.6423 145.206L103.133 137.612Z" fill="#FFFBEA" fill-opacity="0.85"/>
<path d="M46.1802 81.432L-9.99889 138.387L-2.40488 145.878L53.7742 88.9225L46.1802 81.432Z" fill="#FFFBEA" fill-opacity="0.85"/>
<path d="M201.031 136.845L144.076 80.6659L136.586 88.2599L193.541 144.439L201.031 136.845Z" fill="#FFFBEA" fill-opacity="0.85"/>
<path d="M144.079 80.666L87.8995 137.621L95.4936 145.112L151.673 88.1566L144.079 80.666Z" fill="#FFFBEA" fill-opacity="0.85"/>
<path d="M299.699 136.278L242.744 80.0993L235.253 87.6933L292.208 143.872L299.699 136.278Z" fill="#FFFBEA" fill-opacity="0.85"/>
<path d="M242.748 80.0977L186.568 137.053L194.163 144.543L250.342 87.5882L242.748 80.0977Z" fill="#FFFBEA" fill-opacity="0.85"/>
<path d="M397.599 135.514L340.644 79.3353L333.153 86.9293L390.108 143.108L397.599 135.514Z" fill="#FFFBEA" fill-opacity="0.85"/>
<path d="M340.649 79.3328L284.47 136.288L292.064 143.778L348.243 86.8233L340.649 79.3328Z" fill="#FFFBEA" fill-opacity="0.85"/>
<path d="M103.132 -5.05493L46.177 -61.234L38.6865 -53.64L95.6415 2.53908L103.132 -5.05493Z" fill="#FFF9DD" fill-opacity="0.65"/>
<path d="M46.1809 -61.2351L-9.99816 -4.28003L-2.40415 3.21051L53.7749 -53.7446L46.1809 -61.2351Z" fill="#FFF9DD" fill-opacity="0.65"/>
<path d="M201.033 -5.82104L144.078 -62.0001L136.588 -54.4061L193.543 1.77297L201.033 -5.82104Z" fill="#FFF9DD" fill-opacity="0.65"/>
<path d="M144.082 -62.002L87.9025 -5.04688L95.4965 2.44367L151.676 -54.5114L144.082 -62.002Z" fill="#FFF9DD" fill-opacity="0.65"/>
<path d="M299.701 -6.3877L242.746 -62.5668L235.255 -54.9728L292.21 1.20632L299.701 -6.3877Z" fill="#FFF9DD" fill-opacity="0.65"/>
<path d="M242.748 -62.5693L186.569 -5.61426L194.163 1.87628L250.342 -55.0788L242.748 -62.5693Z" fill="#FFF9DD" fill-opacity="0.65"/>
<path d="M397.601 -7.15161L340.646 -63.3307L333.155 -55.7367L390.11 0.442399L397.601 -7.15161Z" fill="#FFF9DD" fill-opacity="0.65"/>
<path d="M340.647 -63.3333L284.468 -6.37817L292.062 1.11237L348.241 -55.8427L340.647 -63.3333Z" fill="#FFF9DD" fill-opacity="0.65"/>
<path d="M103.131 53.6116L46.176 -2.56749L38.6855 5.02652L95.6406 61.2056L103.131 53.6116Z" fill="#FFF9DD" fill-opacity="0.65"/>
<path d="M46.1792 -2.56763L-9.99987 54.3875L-2.40586 61.878L53.7732 4.92292L46.1792 -2.56763Z" fill="#FFF9DD" fill-opacity="0.65"/>
<path d="M201.032 52.8452L144.077 -3.33385L136.587 4.26016L193.542 60.4392L201.032 52.8452Z" fill="#FFF9DD" fill-opacity="0.65"/>
<path d="M144.08 -3.33447L87.9005 53.6206L95.4945 61.1111L151.674 4.15607L144.08 -3.33447Z" fill="#FFF9DD" fill-opacity="0.65"/>
<path d="M299.7 52.2786L242.745 -3.9005L235.254 3.69351L292.209 59.8726L299.7 52.2786Z" fill="#FFF9DD" fill-opacity="0.65"/>
<path d="M242.746 -3.9021L186.567 53.053L194.161 60.5435L250.34 3.58844L242.746 -3.9021Z" fill="#FFF9DD" fill-opacity="0.65"/>
<path d="M397.6 51.5146L340.645 -4.66442L333.154 2.92959L390.109 59.1087L397.6 51.5146Z" fill="#FFF9DD" fill-opacity="0.65"/>
<path d="M340.648 -4.66675L284.469 52.2883L292.063 59.7789L348.242 2.82379L340.648 -4.66675Z" fill="#FFF9DD" fill-opacity="0.65"/>
<path d="M103.134 24.2793L46.179 -31.8998L38.6884 -24.3058L95.6435 31.8733L103.134 24.2793Z" fill="#FFFBEA" fill-opacity="0.85"/>
<path d="M46.1824 -31.9021L-9.99669 25.053L-2.40268 32.5435L53.7764 -24.4116L46.1824 -31.9021Z" fill="#FFFBEA" fill-opacity="0.85"/>
<path d="M201.033 23.5122L144.078 -32.6669L136.587 -25.0728L193.542 31.1062L201.033 23.5122Z" fill="#FFFBEA" fill-opacity="0.85"/>
<path d="M144.081 -32.6682L87.9015 24.2869L95.4955 31.7774L151.675 -25.1777L144.081 -32.6682Z" fill="#FFFBEA" fill-opacity="0.85"/>
<path d="M299.7 22.9456L242.745 -33.2335L235.255 -25.6395L292.21 30.5396L299.7 22.9456Z" fill="#FFFBEA" fill-opacity="0.85"/>
<path d="M242.747 -33.2356L186.568 23.7195L194.162 31.21L250.341 -25.7451L242.747 -33.2356Z" fill="#FFFBEA" fill-opacity="0.85"/>
<path d="M397.6 22.1814L340.645 -33.9977L333.154 -26.4037L390.11 29.7754L397.6 22.1814Z" fill="#FFFBEA" fill-opacity="0.85"/>
<path d="M340.649 -34.0002L284.47 22.9548L292.064 30.4454L348.243 -26.5097L340.649 -34.0002Z" fill="#FFFBEA" fill-opacity="0.85"/>
<path d="M103.134 24.2793L46.179 -31.8998L38.6884 -24.3058L95.6435 31.8733L103.134 24.2793Z" fill="#FFFBEA" fill-opacity="0.85"/>
<path d="M46.1824 -31.9021L-9.99669 25.053L-2.40268 32.5435L53.7764 -24.4116L46.1824 -31.9021Z" fill="#FFFBEA" fill-opacity="0.85"/>
<path d="M201.033 23.5122L144.078 -32.6669L136.587 -25.0728L193.542 31.1062L201.033 23.5122Z" fill="#FFFBEA" fill-opacity="0.85"/>
<path d="M144.081 -32.6682L87.9015 24.2869L95.4955 31.7774L151.675 -25.1777L144.081 -32.6682Z" fill="#FFFBEA" fill-opacity="0.85"/>
<path d="M299.7 22.9456L242.745 -33.2335L235.255 -25.6395L292.21 30.5396L299.7 22.9456Z" fill="#FFFBEA" fill-opacity="0.85"/>
<path d="M242.747 -33.2356L186.568 23.7195L194.162 31.21L250.341 -25.7451L242.747 -33.2356Z" fill="#FFFBEA" fill-opacity="0.85"/>
<path d="M397.6 22.1814L340.645 -33.9977L333.154 -26.4037L390.11 29.7754L397.6 22.1814Z" fill="#FFFBEA" fill-opacity="0.85"/>
<path d="M340.649 -34.0002L284.47 22.9548L292.064 30.4454L348.243 -26.5097L340.649 -34.0002Z" fill="#FFFBEA" fill-opacity="0.85"/>
<path d="M301.033 222.946L244.078 166.766L236.588 174.361L293.543 230.54L301.033 222.946Z" fill="#FFF9DD" fill-opacity="0.65"/>
<path d="M244.08 166.764L187.901 223.719L195.495 231.21L251.674 174.255L244.08 166.764Z" fill="#FFF9DD" fill-opacity="0.65"/>
<path d="M398.932 222.178L341.977 165.999L334.486 173.593L391.441 229.772L398.932 222.178Z" fill="#FFF9DD" fill-opacity="0.65"/>
<path d="M341.981 166L285.802 222.955L293.396 230.445L349.575 173.49L341.981 166Z" fill="#FFF9DD" fill-opacity="0.65"/>
<path d="M104.465 194.945L47.51 138.766L40.0195 146.36L96.9745 202.539L104.465 194.945Z" fill="#FFFBEA" fill-opacity="0.85"/>
<path d="M47.5127 138.763L-8.66637 195.718L-1.07236 203.208L55.1067 146.253L47.5127 138.763Z" fill="#FFFBEA" fill-opacity="0.85"/>
<path d="M202.366 194.179L145.411 138L137.921 145.594L194.876 201.773L202.366 194.179Z" fill="#FFFBEA" fill-opacity="0.85"/>
<path d="M145.414 137.998L89.2352 194.953L96.8293 202.444L153.008 145.489L145.414 137.998Z" fill="#FFFBEA" fill-opacity="0.85"/>
<path d="M301.034 193.612L244.079 137.433L236.588 145.027L293.543 201.206L301.034 193.612Z" fill="#FFFBEA" fill-opacity="0.85"/>
<path d="M244.081 137.431L187.902 194.386L195.496 201.876L251.675 144.921L244.081 137.431Z" fill="#FFFBEA" fill-opacity="0.85"/>
<path d="M398.932 192.845L341.977 136.666L334.487 144.26L391.442 200.439L398.932 192.845Z" fill="#FFFBEA" fill-opacity="0.85"/>
<path d="M341.98 136.667L285.801 193.622L293.395 201.112L349.574 144.157L341.98 136.667Z" fill="#FFFBEA" fill-opacity="0.85"/>
<path d="M104.465 194.945L47.51 138.766L40.0195 146.36L96.9745 202.539L104.465 194.945Z" fill="#FFFBEA" fill-opacity="0.85"/>
<path d="M47.5127 138.763L-8.66637 195.718L-1.07236 203.208L55.1067 146.253L47.5127 138.763Z" fill="#FFFBEA" fill-opacity="0.85"/>
<path d="M202.366 194.179L145.411 138L137.921 145.594L194.876 201.773L202.366 194.179Z" fill="#FFFBEA" fill-opacity="0.85"/>
<path d="M145.414 137.998L89.2352 194.953L96.8293 202.444L153.008 145.489L145.414 137.998Z" fill="#FFFBEA" fill-opacity="0.85"/>
<path d="M301.034 193.612L244.079 137.433L236.588 145.027L293.543 201.206L301.034 193.612Z" fill="#FFFBEA" fill-opacity="0.85"/>
<path d="M244.081 137.431L187.902 194.386L195.496 201.876L251.675 144.921L244.081 137.431Z" fill="#FFFBEA" fill-opacity="0.85"/>
<path d="M398.932 192.845L341.977 136.666L334.487 144.26L391.442 200.439L398.932 192.845Z" fill="#FFFBEA" fill-opacity="0.85"/>
<path d="M341.98 136.667L285.801 193.622L293.395 201.112L349.574 144.157L341.98 136.667Z" fill="#FFFBEA" fill-opacity="0.85"/>
</g>
<defs>
<clipPath id="clip0_13_451">
<rect width="392" height="167" fill="white"/>
</clipPath>
</defs>
</svg>
