<svg width="392" height="167" viewBox="0 0 392 167" fill="none" xmlns="http://www.w3.org/2000/svg">
<g clip-path="url(#clip0_17_981)">
<rect width="392" height="167" fill="#B7D286" fill-opacity="0.8"/>
<rect width="76.4451" height="10.6666" rx="3" transform="matrix(-0.6782 -0.73489 -0.66808 0.74409 141.408 160.945)" fill="#B5C88D"/>
<rect width="76.5438" height="10.6666" rx="3" transform="matrix(-0.66808 0.74409 0.6782 0.73489 89.5654 104.766)" fill="#B5C88D"/>
<rect width="76.4451" height="10.6666" rx="3" transform="matrix(-0.6782 -0.73489 -0.66808 0.74409 230.524 160.179)" fill="#B5C88D"/>
<rect width="76.5438" height="10.6666" rx="3" transform="matrix(-0.66808 0.74409 0.6782 0.73489 178.68 104.001)" fill="#B5C88D"/>
<rect width="76.4451" height="10.6666" rx="3" transform="matrix(-0.6782 -0.73489 -0.66808 0.74409 320.336 159.612)" fill="#B5C88D"/>
<rect width="76.5438" height="10.6666" rx="3" transform="matrix(-0.66808 0.74409 0.6782 0.73489 268.493 103.433)" fill="#B5C88D"/>
<rect width="76.4451" height="10.6666" rx="3" transform="matrix(-0.6782 -0.73489 -0.66808 0.74409 409.451 158.845)" fill="#B5C88D"/>
<rect width="76.5438" height="10.6666" rx="3" transform="matrix(-0.66808 0.74409 0.6782 0.73489 357.608 102.667)" fill="#B5C88D"/>
<rect width="76.4451" height="10.6666" rx="3" transform="matrix(-0.6782 -0.73489 -0.66808 0.74409 141.408 131.612)" fill="#ACBF84"/>
<rect width="76.5438" height="10.6666" rx="3" transform="matrix(-0.66808 0.74409 0.6782 0.73489 89.5654 75.4329)" fill="#ACBF84"/>
<rect width="76.4451" height="10.6666" rx="3" transform="matrix(-0.6782 -0.73489 -0.66808 0.74409 230.524 130.845)" fill="#ACBF84"/>
<rect width="76.5438" height="10.6666" rx="3" transform="matrix(-0.66808 0.74409 0.6782 0.73489 178.68 74.6675)" fill="#ACBF84"/>
<rect width="76.4451" height="10.6666" rx="3" transform="matrix(-0.6782 -0.73489 -0.66808 0.74409 320.336 130.279)" fill="#ACBF84"/>
<rect width="76.5438" height="10.6666" rx="3" transform="matrix(-0.66808 0.74409 0.6782 0.73489 268.493 74.0996)" fill="#ACBF84"/>
<rect width="76.4451" height="10.6666" rx="3" transform="matrix(-0.6782 -0.73489 -0.66808 0.74409 409.452 129.512)" fill="#ACBF84"/>
<rect width="76.5438" height="10.6666" rx="3" transform="matrix(-0.66808 0.74409 0.6782 0.73489 357.608 73.3342)" fill="#ACBF84"/>
<rect width="76.4451" height="10.6666" rx="3" transform="matrix(-0.6782 -0.73489 -0.66808 0.74409 141.408 131.612)" fill="#ACBF84"/>
<rect width="76.5438" height="10.6666" rx="3" transform="matrix(-0.66808 0.74409 0.6782 0.73489 89.5654 75.4329)" fill="#ACBF84"/>
<rect width="76.4451" height="10.6666" rx="3" transform="matrix(-0.6782 -0.73489 -0.66808 0.74409 230.524 130.845)" fill="#ACBF84"/>
<rect width="76.5438" height="10.6666" rx="3" transform="matrix(-0.66808 0.74409 0.6782 0.73489 178.68 74.6675)" fill="#ACBF84"/>
<rect width="76.4451" height="10.6666" rx="3" transform="matrix(-0.6782 -0.73489 -0.66808 0.74409 320.336 130.279)" fill="#ACBF84"/>
<rect width="76.5438" height="10.6666" rx="3" transform="matrix(-0.66808 0.74409 0.6782 0.73489 268.493 74.0996)" fill="#ACBF84"/>
<rect width="76.4451" height="10.6666" rx="3" transform="matrix(-0.6782 -0.73489 -0.66808 0.74409 409.452 129.512)" fill="#ACBF84"/>
<rect width="76.5438" height="10.6666" rx="3" transform="matrix(-0.66808 0.74409 0.6782 0.73489 357.608 73.3342)" fill="#ACBF84"/>
<rect width="76.4451" height="10.6666" rx="3" transform="matrix(-0.6782 -0.73489 -0.66808 0.74409 141.408 219.612)" fill="#B5C88D"/>
<rect width="76.5438" height="10.6666" rx="3" transform="matrix(-0.66808 0.74409 0.6782 0.73489 89.5654 163.433)" fill="#B5C88D"/>
<rect width="76.4451" height="10.6666" rx="3" transform="matrix(-0.6782 -0.73489 -0.66808 0.74409 230.524 218.845)" fill="#B5C88D"/>
<rect width="76.5438" height="10.6666" rx="3" transform="matrix(-0.66808 0.74409 0.6782 0.73489 178.68 162.667)" fill="#B5C88D"/>
<rect width="76.4451" height="10.6666" rx="3" transform="matrix(-0.6782 -0.73489 -0.66808 0.74409 320.336 218.279)" fill="#B5C88D"/>
<rect width="76.5438" height="10.6666" rx="3" transform="matrix(-0.66808 0.74409 0.6782 0.73489 268.493 162.1)" fill="#B5C88D"/>
<rect width="76.4451" height="10.6666" rx="3" transform="matrix(-0.6782 -0.73489 -0.66808 0.74409 409.451 217.512)" fill="#B5C88D"/>
<rect width="76.5438" height="10.6666" rx="3" transform="matrix(-0.66808 0.74409 0.6782 0.73489 357.608 161.334)" fill="#B5C88D"/>
<rect width="76.4451" height="10.6666" rx="3" transform="matrix(-0.6782 -0.73489 -0.66808 0.74409 141.408 190.279)" fill="#ACBF84"/>
<rect width="76.5438" height="10.6666" rx="3" transform="matrix(-0.66808 0.74409 0.6782 0.73489 89.5654 134.1)" fill="#ACBF84"/>
<rect width="76.4451" height="10.6666" rx="3" transform="matrix(-0.6782 -0.73489 -0.66808 0.74409 230.524 189.512)" fill="#ACBF84"/>
<rect width="76.5438" height="10.6666" rx="3" transform="matrix(-0.66808 0.74409 0.6782 0.73489 178.68 133.334)" fill="#ACBF84"/>
<rect width="76.4451" height="10.6666" rx="3" transform="matrix(-0.6782 -0.73489 -0.66808 0.74409 320.336 188.945)" fill="#ACBF84"/>
<rect width="76.5438" height="10.6666" rx="3" transform="matrix(-0.66808 0.74409 0.6782 0.73489 268.493 132.766)" fill="#ACBF84"/>
<rect width="76.4451" height="10.6666" rx="3" transform="matrix(-0.6782 -0.73489 -0.66808 0.74409 409.452 188.179)" fill="#ACBF84"/>
<rect width="76.5438" height="10.6666" rx="3" transform="matrix(-0.66808 0.74409 0.6782 0.73489 357.608 132.001)" fill="#ACBF84"/>
<rect width="76.4451" height="10.6666" rx="3" transform="matrix(-0.6782 -0.73489 -0.66808 0.74409 141.408 190.279)" fill="#ACBF84"/>
<rect width="76.5438" height="10.6666" rx="3" transform="matrix(-0.66808 0.74409 0.6782 0.73489 89.5654 134.1)" fill="#ACBF84"/>
<rect width="76.4451" height="10.6666" rx="3" transform="matrix(-0.6782 -0.73489 -0.66808 0.74409 230.524 189.512)" fill="#ACBF84"/>
<rect width="76.5438" height="10.6666" rx="3" transform="matrix(-0.66808 0.74409 0.6782 0.73489 178.68 133.334)" fill="#ACBF84"/>
<rect width="76.4451" height="10.6666" rx="3" transform="matrix(-0.6782 -0.73489 -0.66808 0.74409 320.336 188.945)" fill="#ACBF84"/>
<rect width="76.5438" height="10.6666" rx="3" transform="matrix(-0.66808 0.74409 0.6782 0.73489 268.493 132.766)" fill="#ACBF84"/>
<rect width="76.4451" height="10.6666" rx="3" transform="matrix(-0.6782 -0.73489 -0.66808 0.74409 409.452 188.179)" fill="#ACBF84"/>
<rect width="76.5438" height="10.6666" rx="3" transform="matrix(-0.66808 0.74409 0.6782 0.73489 357.608 132.001)" fill="#ACBF84"/>
<rect width="76.4451" height="10.6666" rx="3" transform="matrix(-0.6782 -0.73489 -0.66808 0.74409 141.408 42.2788)" fill="#B5C88D"/>
<rect width="76.5438" height="10.6666" rx="3" transform="matrix(-0.66808 0.74409 0.6782 0.73489 89.5654 -13.9004)" fill="#B5C88D"/>
<rect width="76.4451" height="10.6666" rx="3" transform="matrix(-0.6782 -0.73489 -0.66808 0.74409 230.524 41.512)" fill="#B5C88D"/>
<rect width="76.5438" height="10.6666" rx="3" transform="matrix(-0.66808 0.74409 0.6782 0.73489 178.68 -14.6658)" fill="#B5C88D"/>
<rect width="76.4451" height="10.6666" rx="3" transform="matrix(-0.6782 -0.73489 -0.66808 0.74409 320.336 40.9453)" fill="#B5C88D"/>
<rect width="76.5438" height="10.6666" rx="3" transform="matrix(-0.66808 0.74409 0.6782 0.73489 268.493 -15.2336)" fill="#B5C88D"/>
<rect width="76.4451" height="10.6666" rx="3" transform="matrix(-0.6782 -0.73489 -0.66808 0.74409 409.451 40.1787)" fill="#B5C88D"/>
<rect width="76.5438" height="10.6666" rx="3" transform="matrix(-0.66808 0.74409 0.6782 0.73489 357.608 -15.999)" fill="#B5C88D"/>
<rect width="76.4451" height="10.6666" rx="3" transform="matrix(-0.6782 -0.73489 -0.66808 0.74409 141.408 12.9456)" fill="#ACBF84"/>
<rect width="76.5438" height="10.6666" rx="3" transform="matrix(-0.66808 0.74409 0.6782 0.73489 89.5654 -43.2336)" fill="#ACBF84"/>
<rect width="76.4451" height="10.6666" rx="3" transform="matrix(-0.6782 -0.73489 -0.66808 0.74409 230.524 12.1787)" fill="#ACBF84"/>
<rect width="76.5438" height="10.6666" rx="3" transform="matrix(-0.66808 0.74409 0.6782 0.73489 178.68 -43.999)" fill="#ACBF84"/>
<rect width="76.4451" height="10.6666" rx="3" transform="matrix(-0.6782 -0.73489 -0.66808 0.74409 320.336 11.6121)" fill="#ACBF84"/>
<rect width="76.5438" height="10.6666" rx="3" transform="matrix(-0.66808 0.74409 0.6782 0.73489 268.493 -44.5671)" fill="#ACBF84"/>
<rect width="76.4451" height="10.6666" rx="3" transform="matrix(-0.6782 -0.73489 -0.66808 0.74409 409.452 10.8455)" fill="#ACBF84"/>
<rect width="76.5438" height="10.6666" rx="3" transform="matrix(-0.66808 0.74409 0.6782 0.73489 357.608 -45.3325)" fill="#ACBF84"/>
<rect width="76.4451" height="10.6666" rx="3" transform="matrix(-0.6782 -0.73489 -0.66808 0.74409 141.408 12.9456)" fill="#ACBF84"/>
<rect width="76.5438" height="10.6666" rx="3" transform="matrix(-0.66808 0.74409 0.6782 0.73489 89.5654 -43.2336)" fill="#ACBF84"/>
<rect width="76.4451" height="10.6666" rx="3" transform="matrix(-0.6782 -0.73489 -0.66808 0.74409 230.524 12.1787)" fill="#ACBF84"/>
<rect width="76.5438" height="10.6666" rx="3" transform="matrix(-0.66808 0.74409 0.6782 0.73489 178.68 -43.999)" fill="#ACBF84"/>
<rect width="76.4451" height="10.6666" rx="3" transform="matrix(-0.6782 -0.73489 -0.66808 0.74409 320.336 11.6121)" fill="#ACBF84"/>
<rect width="76.5438" height="10.6666" rx="3" transform="matrix(-0.66808 0.74409 0.6782 0.73489 268.493 -44.5671)" fill="#ACBF84"/>
<rect width="76.4451" height="10.6666" rx="3" transform="matrix(-0.6782 -0.73489 -0.66808 0.74409 409.452 10.8455)" fill="#ACBF84"/>
<rect width="76.5438" height="10.6666" rx="3" transform="matrix(-0.66808 0.74409 0.6782 0.73489 357.608 -45.3325)" fill="#ACBF84"/>
<rect width="76.4451" height="10.6666" rx="3" transform="matrix(-0.6782 -0.73489 -0.66808 0.74409 141.408 100.945)" fill="#B5C88D"/>
<rect width="76.5438" height="10.6666" rx="3" transform="matrix(-0.66808 0.74409 0.6782 0.73489 89.5654 44.7664)" fill="#B5C88D"/>
<rect width="76.4451" height="10.6666" rx="3" transform="matrix(-0.6782 -0.73489 -0.66808 0.74409 230.524 100.179)" fill="#B5C88D"/>
<rect width="76.5438" height="10.6666" rx="3" transform="matrix(-0.66808 0.74409 0.6782 0.73489 178.68 44.001)" fill="#B5C88D"/>
<rect width="76.4451" height="10.6666" rx="3" transform="matrix(-0.6782 -0.73489 -0.66808 0.74409 320.336 99.6121)" fill="#B5C88D"/>
<rect width="76.5438" height="10.6666" rx="3" transform="matrix(-0.66808 0.74409 0.6782 0.73489 268.493 43.4329)" fill="#B5C88D"/>
<rect width="76.4451" height="10.6666" rx="3" transform="matrix(-0.6782 -0.73489 -0.66808 0.74409 409.451 98.8455)" fill="#B5C88D"/>
<rect width="76.5438" height="10.6666" rx="3" transform="matrix(-0.66808 0.74409 0.6782 0.73489 357.608 42.6675)" fill="#B5C88D"/>
<rect width="76.4451" height="10.6666" rx="3" transform="matrix(-0.6782 -0.73489 -0.66808 0.74409 141.408 71.6121)" fill="#ACBF84"/>
<rect width="76.5438" height="10.6666" rx="3" transform="matrix(-0.66808 0.74409 0.6782 0.73489 89.5654 15.4329)" fill="#ACBF84"/>
<rect width="76.4451" height="10.6666" rx="3" transform="matrix(-0.6782 -0.73489 -0.66808 0.74409 230.524 70.8455)" fill="#ACBF84"/>
<rect width="76.5438" height="10.6666" rx="3" transform="matrix(-0.66808 0.74409 0.6782 0.73489 178.68 14.6675)" fill="#ACBF84"/>
<rect width="76.4451" height="10.6666" rx="3" transform="matrix(-0.6782 -0.73489 -0.66808 0.74409 320.336 70.2788)" fill="#ACBF84"/>
<rect width="76.5438" height="10.6666" rx="3" transform="matrix(-0.66808 0.74409 0.6782 0.73489 268.493 14.0996)" fill="#ACBF84"/>
<rect width="76.4451" height="10.6666" rx="3" transform="matrix(-0.6782 -0.73489 -0.66808 0.74409 409.452 69.512)" fill="#ACBF84"/>
<rect width="76.5438" height="10.6666" rx="3" transform="matrix(-0.66808 0.74409 0.6782 0.73489 357.608 13.3342)" fill="#ACBF84"/>
<rect width="76.4451" height="10.6666" rx="3" transform="matrix(-0.6782 -0.73489 -0.66808 0.74409 141.408 71.6121)" fill="#ACBF84"/>
<rect width="76.5438" height="10.6666" rx="3" transform="matrix(-0.66808 0.74409 0.6782 0.73489 89.5654 15.4329)" fill="#ACBF84"/>
<rect width="76.4451" height="10.6666" rx="3" transform="matrix(-0.6782 -0.73489 -0.66808 0.74409 230.524 70.8455)" fill="#ACBF84"/>
<rect width="76.5438" height="10.6666" rx="3" transform="matrix(-0.66808 0.74409 0.6782 0.73489 178.68 14.6675)" fill="#ACBF84"/>
<rect width="76.4451" height="10.6666" rx="3" transform="matrix(-0.6782 -0.73489 -0.66808 0.74409 320.336 70.2788)" fill="#ACBF84"/>
<rect width="76.5438" height="10.6666" rx="3" transform="matrix(-0.66808 0.74409 0.6782 0.73489 268.493 14.0996)" fill="#ACBF84"/>
<rect width="76.4451" height="10.6666" rx="3" transform="matrix(-0.6782 -0.73489 -0.66808 0.74409 409.452 69.512)" fill="#ACBF84"/>
<rect width="76.5438" height="10.6666" rx="3" transform="matrix(-0.66808 0.74409 0.6782 0.73489 357.608 13.3342)" fill="#ACBF84"/>
<rect width="76.4451" height="10.6666" rx="3" transform="matrix(-0.6782 -0.73489 -0.66808 0.74409 52.4082 160.945)" fill="#B5C88D"/>
<rect width="76.5438" height="10.6666" rx="3" transform="matrix(-0.66808 0.74409 0.6782 0.73489 0.56543 104.766)" fill="#B5C88D"/>
<rect width="76.4451" height="10.6666" rx="3" transform="matrix(-0.6782 -0.73489 -0.66808 0.74409 141.524 160.179)" fill="#B5C88D"/>
<rect width="76.5438" height="10.6666" rx="3" transform="matrix(-0.66808 0.74409 0.6782 0.73489 89.6799 104.001)" fill="#B5C88D"/>
<rect width="76.4451" height="10.6666" rx="3" transform="matrix(-0.6782 -0.73489 -0.66808 0.74409 231.336 159.612)" fill="#B5C88D"/>
<rect width="76.5438" height="10.6666" rx="3" transform="matrix(-0.66808 0.74409 0.6782 0.73489 179.493 103.433)" fill="#B5C88D"/>
<rect width="76.4451" height="10.6666" rx="3" transform="matrix(-0.6782 -0.73489 -0.66808 0.74409 320.451 158.845)" fill="#B5C88D"/>
<rect width="76.5438" height="10.6666" rx="3" transform="matrix(-0.66808 0.74409 0.6782 0.73489 268.608 102.667)" fill="#B5C88D"/>
<rect width="76.4451" height="10.6666" rx="3" transform="matrix(-0.6782 -0.73489 -0.66808 0.74409 52.4082 131.612)" fill="#ACBF84"/>
<rect width="76.5438" height="10.6666" rx="3" transform="matrix(-0.66808 0.74409 0.6782 0.73489 0.56543 75.4329)" fill="#ACBF84"/>
<rect width="76.4451" height="10.6666" rx="3" transform="matrix(-0.6782 -0.73489 -0.66808 0.74409 141.524 130.845)" fill="#ACBF84"/>
<rect width="76.5438" height="10.6666" rx="3" transform="matrix(-0.66808 0.74409 0.6782 0.73489 89.6799 74.6675)" fill="#ACBF84"/>
<rect width="76.4451" height="10.6666" rx="3" transform="matrix(-0.6782 -0.73489 -0.66808 0.74409 231.336 130.279)" fill="#ACBF84"/>
<rect width="76.5438" height="10.6666" rx="3" transform="matrix(-0.66808 0.74409 0.6782 0.73489 179.493 74.0996)" fill="#ACBF84"/>
<rect width="76.4451" height="10.6666" rx="3" transform="matrix(-0.6782 -0.73489 -0.66808 0.74409 320.452 129.512)" fill="#ACBF84"/>
<rect width="76.5438" height="10.6666" rx="3" transform="matrix(-0.66808 0.74409 0.6782 0.73489 268.608 73.3342)" fill="#ACBF84"/>
<rect width="76.4451" height="10.6666" rx="3" transform="matrix(-0.6782 -0.73489 -0.66808 0.74409 52.4082 131.612)" fill="#ACBF84"/>
<rect width="76.5438" height="10.6666" rx="3" transform="matrix(-0.66808 0.74409 0.6782 0.73489 0.56543 75.4329)" fill="#ACBF84"/>
<rect width="76.4451" height="10.6666" rx="3" transform="matrix(-0.6782 -0.73489 -0.66808 0.74409 141.524 130.845)" fill="#ACBF84"/>
<rect width="76.5438" height="10.6666" rx="3" transform="matrix(-0.66808 0.74409 0.6782 0.73489 89.6799 74.6675)" fill="#ACBF84"/>
<rect width="76.4451" height="10.6666" rx="3" transform="matrix(-0.6782 -0.73489 -0.66808 0.74409 231.336 130.279)" fill="#ACBF84"/>
<rect width="76.5438" height="10.6666" rx="3" transform="matrix(-0.66808 0.74409 0.6782 0.73489 179.493 74.0996)" fill="#ACBF84"/>
<rect width="76.4451" height="10.6666" rx="3" transform="matrix(-0.6782 -0.73489 -0.66808 0.74409 320.452 129.512)" fill="#ACBF84"/>
<rect width="76.5438" height="10.6666" rx="3" transform="matrix(-0.66808 0.74409 0.6782 0.73489 268.608 73.3342)" fill="#ACBF84"/>
<rect width="76.4451" height="10.6666" rx="3" transform="matrix(-0.6782 -0.73489 -0.66808 0.74409 52.4082 219.612)" fill="#B5C88D"/>
<rect width="76.5438" height="10.6666" rx="3" transform="matrix(-0.66808 0.74409 0.6782 0.73489 0.56543 163.433)" fill="#B5C88D"/>
<rect width="76.4451" height="10.6666" rx="3" transform="matrix(-0.6782 -0.73489 -0.66808 0.74409 141.524 218.845)" fill="#B5C88D"/>
<rect width="76.5438" height="10.6666" rx="3" transform="matrix(-0.66808 0.74409 0.6782 0.73489 89.6799 162.667)" fill="#B5C88D"/>
<rect width="76.4451" height="10.6666" rx="3" transform="matrix(-0.6782 -0.73489 -0.66808 0.74409 231.336 218.279)" fill="#B5C88D"/>
<rect width="76.5438" height="10.6666" rx="3" transform="matrix(-0.66808 0.74409 0.6782 0.73489 179.493 162.1)" fill="#B5C88D"/>
<rect width="76.4451" height="10.6666" rx="3" transform="matrix(-0.6782 -0.73489 -0.66808 0.74409 320.451 217.512)" fill="#B5C88D"/>
<rect width="76.5438" height="10.6666" rx="3" transform="matrix(-0.66808 0.74409 0.6782 0.73489 268.608 161.334)" fill="#B5C88D"/>
<rect width="76.4451" height="10.6666" rx="3" transform="matrix(-0.6782 -0.73489 -0.66808 0.74409 52.4082 190.279)" fill="#ACBF84"/>
<rect width="76.5438" height="10.6666" rx="3" transform="matrix(-0.66808 0.74409 0.6782 0.73489 0.56543 134.1)" fill="#ACBF84"/>
<rect width="76.4451" height="10.6666" rx="3" transform="matrix(-0.6782 -0.73489 -0.66808 0.74409 141.524 189.512)" fill="#ACBF84"/>
<rect width="76.5438" height="10.6666" rx="3" transform="matrix(-0.66808 0.74409 0.6782 0.73489 89.6799 133.334)" fill="#ACBF84"/>
<rect width="76.4451" height="10.6666" rx="3" transform="matrix(-0.6782 -0.73489 -0.66808 0.74409 231.336 188.945)" fill="#ACBF84"/>
<rect width="76.5438" height="10.6666" rx="3" transform="matrix(-0.66808 0.74409 0.6782 0.73489 179.493 132.766)" fill="#ACBF84"/>
<rect width="76.4451" height="10.6666" rx="3" transform="matrix(-0.6782 -0.73489 -0.66808 0.74409 320.452 188.179)" fill="#ACBF84"/>
<rect width="76.5438" height="10.6666" rx="3" transform="matrix(-0.66808 0.74409 0.6782 0.73489 268.608 132.001)" fill="#ACBF84"/>
<rect width="76.4451" height="10.6666" rx="3" transform="matrix(-0.6782 -0.73489 -0.66808 0.74409 52.4082 190.279)" fill="#ACBF84"/>
<rect width="76.5438" height="10.6666" rx="3" transform="matrix(-0.66808 0.74409 0.6782 0.73489 0.56543 134.1)" fill="#ACBF84"/>
<rect width="76.4451" height="10.6666" rx="3" transform="matrix(-0.6782 -0.73489 -0.66808 0.74409 141.524 189.512)" fill="#ACBF84"/>
<rect width="76.5438" height="10.6666" rx="3" transform="matrix(-0.66808 0.74409 0.6782 0.73489 89.6799 133.334)" fill="#ACBF84"/>
<rect width="76.4451" height="10.6666" rx="3" transform="matrix(-0.6782 -0.73489 -0.66808 0.74409 231.336 188.945)" fill="#ACBF84"/>
<rect width="76.5438" height="10.6666" rx="3" transform="matrix(-0.66808 0.74409 0.6782 0.73489 179.493 132.766)" fill="#ACBF84"/>
<rect width="76.4451" height="10.6666" rx="3" transform="matrix(-0.6782 -0.73489 -0.66808 0.74409 320.452 188.179)" fill="#ACBF84"/>
<rect width="76.5438" height="10.6666" rx="3" transform="matrix(-0.66808 0.74409 0.6782 0.73489 268.608 132.001)" fill="#ACBF84"/>
<rect width="76.4451" height="10.6666" rx="3" transform="matrix(-0.6782 -0.73489 -0.66808 0.74409 52.4082 42.2788)" fill="#B5C88D"/>
<rect width="76.5438" height="10.6666" rx="3" transform="matrix(-0.66808 0.74409 0.6782 0.73489 0.56543 -13.9004)" fill="#B5C88D"/>
<rect width="76.4451" height="10.6666" rx="3" transform="matrix(-0.6782 -0.73489 -0.66808 0.74409 141.524 41.512)" fill="#B5C88D"/>
<rect width="76.5438" height="10.6666" rx="3" transform="matrix(-0.66808 0.74409 0.6782 0.73489 89.6799 -14.6658)" fill="#B5C88D"/>
<rect width="76.4451" height="10.6666" rx="3" transform="matrix(-0.6782 -0.73489 -0.66808 0.74409 231.336 40.9453)" fill="#B5C88D"/>
<rect width="76.5438" height="10.6666" rx="3" transform="matrix(-0.66808 0.74409 0.6782 0.73489 179.493 -15.2336)" fill="#B5C88D"/>
<rect width="76.4451" height="10.6666" rx="3" transform="matrix(-0.6782 -0.73489 -0.66808 0.74409 320.451 40.1787)" fill="#B5C88D"/>
<rect width="76.5438" height="10.6666" rx="3" transform="matrix(-0.66808 0.74409 0.6782 0.73489 268.608 -15.999)" fill="#B5C88D"/>
<rect width="76.4451" height="10.6666" rx="3" transform="matrix(-0.6782 -0.73489 -0.66808 0.74409 52.4082 12.9456)" fill="#ACBF84"/>
<rect width="76.5438" height="10.6666" rx="3" transform="matrix(-0.66808 0.74409 0.6782 0.73489 0.56543 -43.2336)" fill="#ACBF84"/>
<rect width="76.4451" height="10.6666" rx="3" transform="matrix(-0.6782 -0.73489 -0.66808 0.74409 141.524 12.1787)" fill="#ACBF84"/>
<rect width="76.5438" height="10.6666" rx="3" transform="matrix(-0.66808 0.74409 0.6782 0.73489 89.6799 -43.999)" fill="#ACBF84"/>
<rect width="76.4451" height="10.6666" rx="3" transform="matrix(-0.6782 -0.73489 -0.66808 0.74409 231.336 11.6121)" fill="#ACBF84"/>
<rect width="76.5438" height="10.6666" rx="3" transform="matrix(-0.66808 0.74409 0.6782 0.73489 179.493 -44.5671)" fill="#ACBF84"/>
<rect width="76.4451" height="10.6666" rx="3" transform="matrix(-0.6782 -0.73489 -0.66808 0.74409 320.452 10.8455)" fill="#ACBF84"/>
<rect width="76.5438" height="10.6666" rx="3" transform="matrix(-0.66808 0.74409 0.6782 0.73489 268.608 -45.3325)" fill="#ACBF84"/>
<rect width="76.4451" height="10.6666" rx="3" transform="matrix(-0.6782 -0.73489 -0.66808 0.74409 52.4082 12.9456)" fill="#ACBF84"/>
<rect width="76.5438" height="10.6666" rx="3" transform="matrix(-0.66808 0.74409 0.6782 0.73489 0.56543 -43.2336)" fill="#ACBF84"/>
<rect width="76.4451" height="10.6666" rx="3" transform="matrix(-0.6782 -0.73489 -0.66808 0.74409 141.524 12.1787)" fill="#ACBF84"/>
<rect width="76.5438" height="10.6666" rx="3" transform="matrix(-0.66808 0.74409 0.6782 0.73489 89.6799 -43.999)" fill="#ACBF84"/>
<rect width="76.4451" height="10.6666" rx="3" transform="matrix(-0.6782 -0.73489 -0.66808 0.74409 231.336 11.6121)" fill="#ACBF84"/>
<rect width="76.5438" height="10.6666" rx="3" transform="matrix(-0.66808 0.74409 0.6782 0.73489 179.493 -44.5671)" fill="#ACBF84"/>
<rect width="76.4451" height="10.6666" rx="3" transform="matrix(-0.6782 -0.73489 -0.66808 0.74409 320.452 10.8455)" fill="#ACBF84"/>
<rect width="76.5438" height="10.6666" rx="3" transform="matrix(-0.66808 0.74409 0.6782 0.73489 268.608 -45.3325)" fill="#ACBF84"/>
<rect width="76.4451" height="10.6666" rx="3" transform="matrix(-0.6782 -0.73489 -0.66808 0.74409 52.4082 100.945)" fill="#B5C88D"/>
<rect width="76.5438" height="10.6666" rx="3" transform="matrix(-0.66808 0.74409 0.6782 0.73489 0.56543 44.7664)" fill="#B5C88D"/>
<rect width="76.4451" height="10.6666" rx="3" transform="matrix(-0.6782 -0.73489 -0.66808 0.74409 141.524 100.179)" fill="#B5C88D"/>
<rect width="76.5438" height="10.6666" rx="3" transform="matrix(-0.66808 0.74409 0.6782 0.73489 89.6799 44.001)" fill="#B5C88D"/>
<rect width="76.4451" height="10.6666" rx="3" transform="matrix(-0.6782 -0.73489 -0.66808 0.74409 231.336 99.6121)" fill="#B5C88D"/>
<rect width="76.5438" height="10.6666" rx="3" transform="matrix(-0.66808 0.74409 0.6782 0.73489 179.493 43.4329)" fill="#B5C88D"/>
<rect width="76.4451" height="10.6666" rx="3" transform="matrix(-0.6782 -0.73489 -0.66808 0.74409 320.451 98.8455)" fill="#B5C88D"/>
<rect width="76.5438" height="10.6666" rx="3" transform="matrix(-0.66808 0.74409 0.6782 0.73489 268.608 42.6675)" fill="#B5C88D"/>
<rect width="76.4451" height="10.6666" rx="3" transform="matrix(-0.6782 -0.73489 -0.66808 0.74409 52.4082 71.6121)" fill="#ACBF84"/>
<rect width="76.5438" height="10.6666" rx="3" transform="matrix(-0.66808 0.74409 0.6782 0.73489 0.56543 15.4329)" fill="#ACBF84"/>
<rect width="76.4451" height="10.6666" rx="3" transform="matrix(-0.6782 -0.73489 -0.66808 0.74409 141.524 70.8455)" fill="#ACBF84"/>
<rect width="76.5438" height="10.6666" rx="3" transform="matrix(-0.66808 0.74409 0.6782 0.73489 89.6799 14.6675)" fill="#ACBF84"/>
<rect width="76.4451" height="10.6666" rx="3" transform="matrix(-0.6782 -0.73489 -0.66808 0.74409 231.336 70.2788)" fill="#ACBF84"/>
<rect width="76.5438" height="10.6666" rx="3" transform="matrix(-0.66808 0.74409 0.6782 0.73489 179.493 14.0996)" fill="#ACBF84"/>
<rect width="76.4451" height="10.6666" rx="3" transform="matrix(-0.6782 -0.73489 -0.66808 0.74409 320.452 69.512)" fill="#ACBF84"/>
<rect width="76.5438" height="10.6666" rx="3" transform="matrix(-0.66808 0.74409 0.6782 0.73489 268.608 13.3342)" fill="#ACBF84"/>
<rect width="76.4451" height="10.6666" rx="3" transform="matrix(-0.6782 -0.73489 -0.66808 0.74409 52.4082 71.6121)" fill="#ACBF84"/>
<rect width="76.5438" height="10.6666" rx="3" transform="matrix(-0.66808 0.74409 0.6782 0.73489 0.56543 15.4329)" fill="#ACBF84"/>
<rect width="76.4451" height="10.6666" rx="3" transform="matrix(-0.6782 -0.73489 -0.66808 0.74409 141.524 70.8455)" fill="#ACBF84"/>
<rect width="76.5438" height="10.6666" rx="3" transform="matrix(-0.66808 0.74409 0.6782 0.73489 89.6799 14.6675)" fill="#ACBF84"/>
<rect width="76.4451" height="10.6666" rx="3" transform="matrix(-0.6782 -0.73489 -0.66808 0.74409 231.336 70.2788)" fill="#ACBF84"/>
<rect width="76.5438" height="10.6666" rx="3" transform="matrix(-0.66808 0.74409 0.6782 0.73489 179.493 14.0996)" fill="#ACBF84"/>
<rect width="76.4451" height="10.6666" rx="3" transform="matrix(-0.6782 -0.73489 -0.66808 0.74409 320.452 69.512)" fill="#ACBF84"/>
<rect width="76.5438" height="10.6666" rx="3" transform="matrix(-0.66808 0.74409 0.6782 0.73489 268.608 13.3342)" fill="#ACBF84"/>
</g>
<defs>
<clipPath id="clip0_17_981">
<rect width="392" height="167" fill="white"/>
</clipPath>
</defs>
</svg>
